# xmcd
#
# Track frame offsets: 
#        150
#        25950
#        38100
#        57000
#        74662
#        90150
#        104325
#        113925
#        136012
#        149625
#
# Disc length: 2282 seconds
#
# Revision: 2
# Processed by: cddbd v1.5.2PL0 Copyright (c) Steve Scherf et al.
# Submitted via: ExactAudioCopy v0.99pb4
#
DISCID=8808e80a
DTITLE=Fenton Robinson - Nightflight
DYEAR=1984
DGENRE=Blues
TTITLE0=I Found Out Yesterday
TTITLE1=Slow Walking
TTITLE2=Can´t Hold Out Much Longer
TTITLE3=Nightflight
TTITLE4=The Feeeling Is Gone
TTITLE5=Laundry Man
TTITLE6=Crazy, Crazy Lovin
TTITLE7=I Lost My True Love
TTITLE8=Schoolboy
TTITLE9=Sinner´s Prayer
EXTD=
EXTT0=
EXTT1=
EXTT2=
EXTT3=
EXTT4=
EXTT5=
EXTT6=
EXTT7=
EXTT8=
EXTT9=
PLAYORDER=
